<svg width="24" height="24" viewBox="0 0 24 24" fill="none" xmlns="http://www.w3.org/2000/svg">
<path fill-rule="evenodd" clip-rule="evenodd" d="M2 4C2 2.89543 2.89543 2 4 2H20C21.1046 2 22 2.89543 22 4V20C22 21.1046 21.1046 22 20 22H4C2.89543 22 2 21.1046 2 20V4ZM8.41421 17L10.7071 14.7071C11.0976 14.3166 11.0976 13.6834 10.7071 13.2929C10.3166 12.9024 9.68342 12.9024 9.29289 13.2929L7 15.5858V14C7 13.4477 6.55228 13 6 13C5.44772 13 5 13.4477 5 14V17.9998V18C5 18.1356 5.02699 18.2649 5.07588 18.3828C5.12468 18.5007 5.19702 18.6112 5.29289 18.7071C5.38877 18.803 5.49927 18.8753 5.61722 18.9241C5.73512 18.973 5.86441 19 6 19H10C10.5523 19 11 18.5523 11 18C11 17.4477 10.5523 17 10 17H8.41421ZM13.2929 9.29289L15.5858 7H14C13.4477 7 13 6.55228 13 6C13 5.44771 13.4477 5 14 5L18 5C18.1356 5 18.2649 5.02699 18.3828 5.07588C18.5007 5.12468 18.6112 5.19702 18.7071 5.29289C18.803 5.38877 18.8753 5.49927 18.9241 5.61722C18.973 5.73512 19 5.86441 19 6V6.00017V10C19 10.5523 18.5523 11 18 11C17.4477 11 17 10.5523 17 10V8.41421L14.7071 10.7071C14.3166 11.0976 13.6834 11.0976 13.2929 10.7071C12.9024 10.3166 12.9024 9.68342 13.2929 9.29289Z" fill="#47D060"/>
</svg>
