<svg width="1440" height="3680" viewBox="0 0 1440 3680" fill="none" xmlns="http://www.w3.org/2000/svg">
<g clip-path="url(#clip0)">
<rect y="-320" width="1440" height="4000" fill="url(#paint0_linear)"/>
<path d="M1301.81 2868.15C1212.31 2727.15 1146.81 2741.65 1191.31 2597.15C1207.81 2561.15 1213.51 2556.05 1264.31 2463.65C1327.81 2348.15 1282 2339.89 1378.5 2358.89C1475 2377.89 1577 2416.39 1473.5 2489.39C1370 2562.39 1482.81 2513.15 1511.31 2649.65C1539.81 2786.15 1619.31 2802.15 1598.31 2978.65C1577.31 3155.15 1391.31 3009.15 1301.81 2868.15Z" fill="#58D570" fill-opacity="0.07"/>
<path d="M1039.23 3491.7C1169.51 3387.21 1147.88 3323.71 1296.41 3352.02C1334 3364.45 1339.7 3369.55 1437.14 3409.87C1558.93 3460.25 1723.52 3688.01 1715.27 3786.01C1707.01 3884.02 1592.53 3745.29 1508.58 3650.46C1424.62 3555.63 1412.01 3632.49 1279.48 3675.85C1146.95 3719.22 1139.8 3800 962.066 3798.57C784.326 3797.14 908.947 3596.19 1039.23 3491.7Z" fill="#58D570" fill-opacity="0.1"/>
<path opacity="0.15" d="M1064 -108C1194.5 -140.5 1189 -231 1189 -311.5V-319H1439.5V-301.5V245.5C1439.5 249 1433 244.5 1431 241.5C1414.45 216.678 1263.5 107 1131 88C998.5 69 783.5 95.5 626 157C468.5 218.5 317 274 251.5 134C186 -6 386 -125.5 536 -135C686 -144.5 933.5 -75.5 1064 -108Z" fill="url(#paint1_linear)"/>
<path opacity="0.24" d="M1470.94 -135.993C1521.91 -148.688 1567 -154.556 1567 -186V-179.164V34.5021C1567 35.8693 1564.46 34.1115 1563.68 32.9397C1557.22 23.2437 1498.26 -19.598 1446.5 -27.0197C1394.75 -34.4414 1423.79 -24.0901 1362.27 -0.0673065C1300.75 23.9555 1241.58 45.6346 1215.99 -9.05144C1190.41 -63.7375 1268.53 -110.416 1327.12 -114.127C1385.71 -117.838 1419.96 -123.298 1470.94 -135.993Z" fill="url(#paint2_linear)"/>
<path opacity="0.1" d="M1317.5 353.5C1309.5 444.5 1305.5 468 1174.5 592.5C1085.33 635.834 895.7 754.801 850.5 884.001C794 1045.5 870.5 1193.5 773.5 1406.5C676.5 1619.5 544.5 1703.5 360 1740.5C212.4 1770.1 59.1666 1743.5 1 1726.5V1526L0 1269C0.5 1266 4.54155 1275.5 6.5 1281.5C30.0012 1353.5 366 1540 559 1300.5C752 1061 619.5 689.001 633.5 500.001C647.5 311.001 758.5 150 937.5 114C1116.5 78 1174.5 140 1229 164C1283.5 188 1325.5 262.5 1317.5 353.5Z" fill="#D3BF0D" fill-opacity="0.8"/>
<path opacity="0.1" d="M473.5 458.743C313.5 576.743 213.5 639.743 -1 561.243L9.5 1131.74C6 1138.08 11.1 1161.04 59.5 1202.24C120 1253.74 334.5 933.244 473.5 830.244C612.5 727.244 782 700.244 930 642.744C1078 585.244 1205 443.243 1211 313.243C1217 183.243 1099 126.243 906 144.243C713 162.243 633.5 340.743 473.5 458.743Z" fill="#5496D6"/>
<path opacity="0.16" d="M1048.5 870C1160 739.5 1256.5 767.5 1434.5 703.5V1550.5C1397.5 1585.67 1322.9 1719.4 1320.5 1973C1317.5 2290 1151 2367.5 1029 2411.5C907 2455.5 720.5 2336.5 676 2259C631.5 2181.5 595.5 1917.5 698.5 1800.5C801.5 1683.5 931.5 1559 901 1364.5C870.5 1170 937 1000.5 1048.5 870Z" fill="#00CB4F"/>
<path opacity="0.8" d="M160.242 -32C217.242 -216.5 268.742 -40 447.242 -395H723.742C759.408 -334.167 860.242 -211 978.242 -205C1125.74 -197.5 1151.74 -32 1085.24 38.5C1018.74 109 944.742 75.5 756.742 112C568.742 148.5 646.242 260 494.742 400C343.242 540 192.242 440.5 77.7418 352C-36.7582 263.5 103.242 152.5 160.242 -32Z" fill="url(#paint3_linear)"/>
<path opacity="0.14" d="M407.5 -177C439.1 -232.6 436.667 -294.167 431 -320H429.5H-1V94.5V274.5C54.5 340 181.5 300.5 198 246C214.5 191.5 165 82.5 206 -1.5C247 -85.5 368 -107.5 407.5 -177Z" fill="#58D570"/>
<circle opacity="0.3" cx="577" cy="160" r="57" fill="#D3BF0D"/>
<circle opacity="0.3" cx="652.5" cy="191.5" r="154.5" fill="#3E7A50"/>
<circle opacity="0.3" cx="958.5" cy="371.5" r="104.5" fill="#3E7A50"/>
<circle opacity="0.3" cx="902" cy="342" r="57" fill="#D3BF0D"/>
<circle opacity="0.78" cx="1332" cy="289" r="163" fill="#0B0D0F"/>
<circle opacity="0.78" cx="14" cy="267" r="163" fill="#0B0D0F"/>
<ellipse opacity="0.31" cx="14" cy="927.5" rx="57" ry="143.5" fill="url(#paint4_linear)"/>
<ellipse opacity="0.1" cx="252.5" cy="852.5" rx="381.5" ry="585.5" fill="url(#paint5_linear)"/>
<ellipse opacity="0.2" cx="536.5" cy="3713.5" rx="193.5" ry="297.5" fill="url(#paint6_linear)"/>
<ellipse opacity="0.23" cx="348" cy="2035.5" rx="277" ry="23.5" fill="url(#paint7_linear)"/>
<ellipse opacity="0.3" cx="607.49" cy="460.774" rx="96.2032" ry="178.505" transform="rotate(91.1273 607.49 460.774)" fill="#3F6891"/>
<ellipse opacity="0.3" cx="1172.47" cy="1422.2" rx="210.25" ry="202.646" transform="rotate(91.1273 1172.47 1422.2)" fill="#3F6891" fill-opacity="0.5"/>
<ellipse opacity="0.3" cx="1012.74" cy="1193.2" rx="210.25" ry="202.646" transform="rotate(91.1273 1012.74 1193.2)" fill="#3F6891"/>
<ellipse opacity="0.3" cx="1403.74" cy="1798.2" rx="210.25" ry="202.646" transform="rotate(91.1273 1403.74 1798.2)" fill="#3F6891"/>
<ellipse opacity="0.55" cx="973.973" cy="307.259" rx="35.1364" ry="62.8398" transform="rotate(59.3566 973.973 307.259)" fill="url(#paint8_linear)"/>
<ellipse opacity="0.2" cx="616.012" cy="1953.07" rx="101.06" ry="180.741" transform="rotate(29.9164 616.012 1953.07)" fill="url(#paint9_linear)"/>
<ellipse opacity="0.2" cx="467.736" cy="2266.06" rx="101.06" ry="180.741" transform="rotate(29.9164 467.736 2266.06)" fill="url(#paint10_linear)"/>
<path opacity="0.1" d="M369 1896.25C283.432 2014.15 114.707 2151.36 13.036 2229.56C12.0503 2230.32 11.5005 2231.47 11.5015 2232.72L11.9964 2901.43C11.9983 2903.93 14.2482 2905.82 16.6813 2905.23C59.1293 2894.86 153.21 2842.85 226 2705.75C320.5 2527.75 347.5 2118.25 576 1867.75C804.5 1617.25 763.5 1913.25 673 2118.25C582.5 2323.25 556 2743.75 576 2959.75C596 3175.75 953.5 3641.75 1056 3736.75C1137.05 3811.86 1347.2 3807.53 1445.57 3795.67C1447.58 3795.43 1449 3793.73 1449 3791.72V3178.7C1449 3177.76 1448.68 3176.86 1448.06 3176.15C1435.45 3161.87 1396.41 3129.63 1332.5 3106.25C1250.5 3076.25 966.5 2851.75 884.5 2636.25C802.5 2420.75 843.5 2227.75 912.5 2071.75C981.5 1915.75 970 1754.75 929 1586.75C888 1418.75 700.166 1127.23 763.5 959.746C786 900.246 985.899 720.433 727 692.246C552.5 673.248 600 852.747 621.5 932.247C643 1011.75 529 1082.47 529 1146.75C529 1230.25 626 1263.75 576 1498.25C526 1732.75 455 1777.75 369 1896.25Z" fill="#E3D44A" fill-opacity="0.3"/>
<path d="M308 2832.75C139.2 3021.95 33.3333 3053.58 1.5 3045.75V3249.75C73.3333 3237.25 229.6 3232.65 280 3314.25C343 3416.25 247 3752.25 340 3893.25C433 4034.25 931 3938.25 916 3599.25C901 3260.25 694 3305.25 737.5 2990.25C781 2675.25 1096 2674.75 1261.5 2608.75C1393.9 2555.95 1434.67 2178.75 1438.5 1996.75V457.746C1432.83 475.746 1261.5 891 1294 1101.25C1323.67 1293.22 1305 1410.25 1225 1690.25C1145 1970.25 941 2057.75 737.5 2174.25C534 2290.75 519 2596.25 308 2832.75Z" fill="#497FB3" fill-opacity="0.13"/>
<path d="M589.814 3457.15C500.314 3316.15 434.814 3330.65 479.314 3186.15C495.815 3150.15 501.514 3145.05 552.314 3052.65C615.814 2937.15 570 2928.89 666.5 2947.89C763 2966.89 865 3005.39 761.5 3078.39C658 3151.39 770.814 3102.15 799.314 3238.65C827.814 3375.15 907.314 3391.15 886.314 3567.65C865.314 3744.15 679.314 3598.15 589.814 3457.15Z" fill="#58D570" fill-opacity="0.07"/>
<ellipse opacity="0.4" cx="822" cy="1944" rx="255" ry="529" fill="#0B0D0F"/>
<ellipse opacity="0.4" cx="1375" cy="1415" rx="255" ry="529" fill="#0B0D0F"/>
<ellipse opacity="0.4" cx="991" cy="388.5" rx="341" ry="340.5" fill="#0B0D0F"/>
<ellipse opacity="0.15" cx="1569" cy="1099.5" rx="200" ry="338.5" fill="#00CB4F"/>
<ellipse opacity="0.9" cx="906.438" cy="1024.88" rx="156.612" ry="280.094" transform="rotate(29.9164 906.438 1024.88)" fill="#0D0F12"/>
<ellipse opacity="0.9" cx="743.437" cy="-105.119" rx="83.998" ry="150.227" transform="rotate(29.9164 743.437 -105.119)" fill="#0D0F12"/>
<ellipse opacity="0.3" cx="-47.1415" cy="796.12" rx="210.25" ry="198.76" transform="rotate(91.1273 -47.1415 796.12)" fill="#3F6891"/>
<ellipse opacity="0.2" cx="188.937" cy="203" rx="350.005" ry="359.018" transform="rotate(91.1273 188.937 203)" fill="#3F6891"/>
<ellipse opacity="0.35" cx="-46.0265" cy="-20.7702" rx="107.892" ry="152.241" transform="rotate(59.3566 -46.0265 -20.7702)" fill="url(#paint11_linear)"/>
<circle cx="787" cy="487" r="57" fill="#D3BF0D" fill-opacity="0.27"/>
<circle opacity="0.2" cx="128" cy="2531" r="104" transform="rotate(90 128 2531)" fill="#8B46AD" fill-opacity="0.8"/>
<circle opacity="0.34" cx="1137" cy="3011" r="49" transform="rotate(90 1137 3011)" fill="#8B46AD" fill-opacity="0.8"/>
<circle opacity="0.2" cx="788" cy="3545" r="33" transform="rotate(90 788 3545)" fill="#20A9A3" fill-opacity="0.8"/>
<circle opacity="0.2" cx="1164" cy="2127" r="33" transform="rotate(90 1164 2127)" fill="#20A9A3" fill-opacity="0.8"/>
<g filter="url(#filter0_b)">
<path d="M0 -320H1440V3680H0V-320Z" fill="black" fill-opacity="0.04"/>
</g>
</g>
<defs>
<filter id="filter0_b" x="-250" y="-570" width="1940" height="4500" filterUnits="userSpaceOnUse" color-interpolation-filters="sRGB">
<feFlood flood-opacity="0" result="BackgroundImageFix"/>
<feGaussianBlur in="BackgroundImage" stdDeviation="125"/>
<feComposite in2="SourceAlpha" operator="in" result="effect1_backgroundBlur"/>
<feBlend mode="normal" in="SourceGraphic" in2="effect1_backgroundBlur" result="shape"/>
</filter>
<linearGradient id="paint0_linear" x1="828.5" y1="3680" x2="671.631" y2="-531.529" gradientUnits="userSpaceOnUse">
<stop/>
<stop offset="0.711751" stop-color="#070809"/>
<stop offset="1" stop-color="#2E373F"/>
</linearGradient>
<linearGradient id="paint1_linear" x1="1537.51" y1="241.723" x2="120.043" y2="-182.983" gradientUnits="userSpaceOnUse">
<stop stop-color="#5496D6"/>
<stop offset="1" stop-color="#6BA4D8"/>
</linearGradient>
<linearGradient id="paint2_linear" x1="1596.06" y1="33.0267" x2="1160.61" y2="-65.9983" gradientUnits="userSpaceOnUse">
<stop stop-color="#5496D6"/>
<stop offset="1" stop-color="#6BA4D8"/>
</linearGradient>
<linearGradient id="paint3_linear" x1="466.742" y1="469.5" x2="656.756" y2="-365.844" gradientUnits="userSpaceOnUse">
<stop/>
<stop offset="1" stop-color="#2E373F"/>
</linearGradient>
<linearGradient id="paint4_linear" x1="80.3046" y1="1068.44" x2="-65.8875" y2="1060.24" gradientUnits="userSpaceOnUse">
<stop stop-color="#5496D6"/>
<stop offset="1" stop-color="#6BA4D8"/>
</linearGradient>
<linearGradient id="paint5_linear" x1="696.275" y1="1427.54" x2="-277.027" y2="1338.01" gradientUnits="userSpaceOnUse">
<stop stop-color="#5496D6"/>
<stop offset="1" stop-color="#6BA4D8"/>
</linearGradient>
<linearGradient id="paint6_linear" x1="761.587" y1="4005.69" x2="267.905" y2="3960.36" gradientUnits="userSpaceOnUse">
<stop stop-color="#5496D6"/>
<stop offset="1" stop-color="#6BA4D8"/>
</linearGradient>
<linearGradient id="paint7_linear" x1="670.217" y1="2058.58" x2="481.13" y2="1743.93" gradientUnits="userSpaceOnUse">
<stop stop-color="#5496D6"/>
<stop offset="1" stop-color="#6BA4D8"/>
</linearGradient>
<linearGradient id="paint8_linear" x1="1014.85" y1="368.976" x2="925.005" y2="361.885" gradientUnits="userSpaceOnUse">
<stop stop-color="#5496D6"/>
<stop offset="1" stop-color="#6BA4D8"/>
</linearGradient>
<linearGradient id="paint9_linear" x1="733.568" y1="2130.58" x2="475.168" y2="2110.19" gradientUnits="userSpaceOnUse">
<stop stop-color="#5496D6"/>
<stop offset="1" stop-color="#6BA4D8"/>
</linearGradient>
<linearGradient id="paint10_linear" x1="585.293" y1="2443.57" x2="326.892" y2="2423.18" gradientUnits="userSpaceOnUse">
<stop stop-color="#5496D6"/>
<stop offset="1" stop-color="#6BA4D8"/>
</linearGradient>
<linearGradient id="paint11_linear" x1="79.4781" y1="128.752" x2="-195.361" y2="101.255" gradientUnits="userSpaceOnUse">
<stop stop-color="#5496D6"/>
<stop offset="1" stop-color="#6BA4D8"/>
</linearGradient>
<clipPath id="clip0">
<rect width="1440" height="4000" fill="white" transform="translate(0 -320)"/>
</clipPath>
</defs>
</svg>
