<svg width="1440" height="4000" viewBox="0 0 1440 4000" fill="none" xmlns="http://www.w3.org/2000/svg">
<g clip-path="url(#clip0)">
<rect width="1440" height="4000" fill="url(#paint0_linear)"/>
<path d="M1301.81 3188.15C1212.31 3047.15 1146.81 3061.65 1191.31 2917.15C1207.81 2881.15 1213.51 2876.05 1264.31 2783.65C1327.81 2668.15 1282 2659.89 1378.5 2678.89C1475 2697.89 1577 2736.39 1473.5 2809.39C1370 2882.39 1482.81 2833.15 1511.31 2969.65C1539.81 3106.15 1619.31 3122.15 1598.31 3298.65C1577.31 3475.15 1391.31 3329.15 1301.81 3188.15Z" fill="#58D570" fill-opacity="0.07"/>
<path d="M1039.23 3811.7C1169.51 3707.21 1147.88 3643.71 1296.4 3672.02C1334 3684.45 1339.7 3689.55 1437.14 3729.87C1558.93 3780.25 1723.52 4008.01 1715.27 4106.01C1707.01 4204.02 1592.53 4065.29 1508.58 3970.46C1424.62 3875.63 1412.01 3952.49 1279.48 3995.85C1146.95 4039.22 1139.8 4120 962.065 4118.57C784.326 4117.14 908.947 3916.19 1039.23 3811.7Z" fill="#58D570" fill-opacity="0.1"/>
<path opacity="0.15" d="M1064 212C1194.5 179.5 1189 89 1189 8.5V1L1439.5 1V18.5V565.5C1439.5 569 1433 564.5 1431 561.5C1414.45 536.678 1263.5 427 1131 408C998.5 389 783.5 415.5 626 477C468.5 538.5 317 594 251.5 454C186 314 386 194.5 536 185C686 175.5 933.5 244.5 1064 212Z" fill="url(#paint1_linear)"/>
<path opacity="0.24" d="M1470.94 184.007C1521.91 171.312 1567 165.444 1567 134V140.836V354.502C1567 355.869 1564.46 354.112 1563.68 352.94C1557.22 343.244 1498.26 300.402 1446.5 292.98C1394.75 285.559 1423.79 295.91 1362.27 319.933C1300.75 343.956 1241.58 365.635 1215.99 310.949C1190.41 256.262 1268.53 209.584 1327.12 205.873C1385.71 202.162 1419.96 196.702 1470.94 184.007Z" fill="url(#paint2_linear)"/>
<path opacity="0.1" d="M1317.5 673.5C1309.5 764.5 1305.5 788 1174.5 912.5C1085.33 955.834 895.7 1074.8 850.5 1204C794 1365.5 870.5 1513.5 773.5 1726.5C676.5 1939.5 544.5 2023.5 360 2060.5C212.4 2090.1 59.1666 2063.5 1 2046.5L1 1846L0 1589C0.5 1586 4.54155 1595.5 6.5 1601.5C30.0012 1673.5 366 1860 559 1620.5C752 1381 619.5 1009 633.5 820.001C647.5 631.001 758.5 470 937.5 434C1116.5 398 1174.5 460 1229 484C1283.5 508 1325.5 582.5 1317.5 673.5Z" fill="#D3BF0D" fill-opacity="0.8"/>
<path opacity="0.1" d="M473.5 778.743C313.5 896.743 213.5 959.743 -1 881.243L9.5 1451.74C6 1458.08 11.1 1481.04 59.5 1522.24C120 1573.74 334.5 1253.24 473.5 1150.24C612.5 1047.24 782 1020.24 930 962.744C1078 905.244 1205 763.243 1211 633.243C1217 503.243 1099 446.243 906 464.243C713 482.243 633.5 660.743 473.5 778.743Z" fill="#5496D6"/>
<path opacity="0.16" d="M1048.5 1190C1160 1059.5 1256.5 1087.5 1434.5 1023.5V1870.5C1397.5 1905.67 1322.9 2039.4 1320.5 2293C1317.5 2610 1151 2687.5 1029 2731.5C907 2775.5 720.499 2656.5 675.999 2579C631.499 2501.5 595.499 2237.5 698.499 2120.5C801.499 2003.5 931.5 1879 901 1684.5C870.5 1490 937 1320.5 1048.5 1190Z" fill="#00CB4F"/>
<path opacity="0.8" d="M160.242 288C217.242 103.5 268.742 280 447.242 -75L723.742 -75C759.408 -14.1667 860.242 109 978.242 115C1125.74 122.5 1151.74 288 1085.24 358.5C1018.74 429 944.742 395.5 756.742 432C568.742 468.5 646.242 580 494.742 720C343.242 860 192.242 760.5 77.7418 672C-36.7582 583.5 103.242 472.5 160.242 288Z" fill="url(#paint3_linear)"/>
<path opacity="0.14" d="M407.5 143C439.1 87.4 436.667 25.8333 431 0L429.5 0L-1 0L-1 414.5L-1 594.5C54.5 660 181.5 620.5 198 566C214.5 511.5 165 402.5 206 318.5C247 234.5 368 212.5 407.5 143Z" fill="#58D570"/>
<path opacity="0.1" d="M141.593 49.817C152.624 30.4476 151.774 8.99958 149.796 0L149.273 0L-1 0L-1 144.4L-1 207.106C18.3731 229.925 62.7044 216.164 68.464 197.178C74.2236 178.192 56.9449 140.219 71.2565 110.956C85.5682 81.693 127.805 74.0288 141.593 49.817Z" fill="#58D570"/>
<path opacity="0.2" d="M63.7298 22.7475C68.7371 13.903 68.3515 4.1094 67.4535 0L67.2159 0L-1 0L-1 65.9359L-1 94.5692C7.79438 104.988 27.9185 98.7051 30.533 90.0356C33.1476 81.3661 25.3039 64.0271 31.8007 50.6649C38.2974 37.3027 57.4707 33.8031 63.7298 22.7475Z" fill="#58D570"/>
<path d="M216.131 33C224.131 14.5 284.131 -7 325.631 -19.5C365.94 -31.6415 393.985 -21.6117 423.511 -53.5585L848.131 -66C882.131 -45.3333 969.631 -9 1047.63 -29C1145.13 -54 1223.63 -19.5 1228.63 19C1233.63 57.5 1203.63 133.5 1146.63 153.5C1089.63 173.5 1016.63 172 993.631 133.5C970.631 95 904.131 50 823.631 68.5C743.131 87 587.131 33 502.131 33C417.131 33 344.631 44 270.131 68.5C195.631 93 208.131 51.5 216.131 33Z" fill="#0B0D0F"/>
<circle opacity="0.3" cx="577" cy="480" r="57" fill="#D3BF0D"/>
<circle opacity="0.3" cx="652.5" cy="511.5" r="154.5" fill="#3E7A50"/>
<circle opacity="0.3" cx="958.5" cy="691.5" r="104.5" fill="#3E7A50"/>
<circle opacity="0.3" cx="902" cy="662" r="57" fill="#D3BF0D"/>
<circle opacity="0.78" cx="1332" cy="609" r="163" fill="#0B0D0F"/>
<circle opacity="0.78" cx="14" cy="587" r="163" fill="#0B0D0F"/>
<ellipse opacity="0.31" cx="14" cy="1247.5" rx="57" ry="143.5" fill="url(#paint4_linear)"/>
<ellipse opacity="0.1" cx="252.5" cy="1172.5" rx="381.5" ry="585.5" fill="url(#paint5_linear)"/>
<ellipse opacity="0.2" cx="536.5" cy="4033.5" rx="193.5" ry="297.5" fill="url(#paint6_linear)"/>
<ellipse opacity="0.23" cx="348" cy="2355.5" rx="277" ry="23.5" fill="url(#paint7_linear)"/>
<ellipse opacity="0.55" cx="375.334" cy="250.401" rx="35.1364" ry="62.8398" transform="rotate(59.3566 375.334 250.401)" fill="url(#paint8_linear)"/>
<ellipse opacity="0.3" cx="607.49" cy="780.774" rx="96.2032" ry="178.505" transform="rotate(91.1273 607.49 780.774)" fill="#3F6891"/>
<ellipse opacity="0.3" cx="1172.47" cy="1742.2" rx="210.25" ry="202.646" transform="rotate(91.1273 1172.47 1742.2)" fill="#3F6891" fill-opacity="0.5"/>
<ellipse opacity="0.3" cx="1012.74" cy="1513.2" rx="210.25" ry="202.646" transform="rotate(91.1273 1012.74 1513.2)" fill="#3F6891"/>
<ellipse opacity="0.3" cx="1403.74" cy="2118.2" rx="210.25" ry="202.646" transform="rotate(91.1273 1403.74 2118.2)" fill="#3F6891"/>
<ellipse opacity="0.55" cx="973.973" cy="627.259" rx="35.1364" ry="62.8398" transform="rotate(59.3566 973.973 627.259)" fill="url(#paint9_linear)"/>
<ellipse opacity="0.2" cx="616.012" cy="2273.07" rx="101.06" ry="180.741" transform="rotate(29.9164 616.012 2273.07)" fill="url(#paint10_linear)"/>
<ellipse opacity="0.2" cx="467.736" cy="2586.06" rx="101.06" ry="180.741" transform="rotate(29.9164 467.736 2586.06)" fill="url(#paint11_linear)"/>
<path opacity="0.1" d="M369 2216.25C283.432 2334.15 114.707 2471.36 13.036 2549.56C12.0503 2550.32 11.5005 2551.47 11.5015 2552.72L11.9964 3221.43C11.9983 3223.93 14.2482 3225.82 16.6813 3225.23C59.1293 3214.86 153.21 3162.85 226 3025.75C320.5 2847.75 347.5 2438.25 576 2187.75C804.5 1937.25 763.5 2233.25 673 2438.25C582.5 2643.25 556 3063.75 576 3279.75C596 3495.75 953.5 3961.75 1056 4056.75C1137.05 4131.86 1347.2 4127.53 1445.57 4115.67C1447.58 4115.43 1449 4113.73 1449 4111.72V3498.7C1449 3497.76 1448.68 3496.86 1448.06 3496.15C1435.45 3481.87 1396.41 3449.63 1332.5 3426.25C1250.5 3396.25 966.5 3171.75 884.5 2956.25C802.5 2740.75 843.5 2547.75 912.5 2391.75C981.5 2235.75 970 2074.75 929 1906.75C888 1738.75 700.166 1447.23 763.5 1279.75C786 1220.25 985.899 1040.43 727 1012.25C552.5 993.248 600 1172.75 621.5 1252.25C643 1331.75 529 1402.47 529 1466.75C529 1550.25 626 1583.75 576 1818.25C526 2052.75 455 2097.75 369 2216.25Z" fill="#E3D44A" fill-opacity="0.3"/>
<path d="M308 3152.75C139.2 3341.95 33.3333 3373.58 1.5 3365.75L1.5 3569.75C73.3333 3557.25 229.6 3552.65 280 3634.25C343 3736.25 247 4072.25 340 4213.25C433 4354.25 931 4258.25 916 3919.25C901 3580.25 694 3625.25 737.5 3310.25C781 2995.25 1096 2994.75 1261.5 2928.75C1393.9 2875.95 1434.67 2498.75 1438.5 2316.75L1438.5 777.746C1432.83 795.746 1261.5 1211 1294 1421.25C1323.67 1613.22 1305 1730.25 1225 2010.25C1145 2290.25 941 2377.75 737.5 2494.25C534 2610.75 519 2916.25 308 3152.75Z" fill="#497FB3" fill-opacity="0.13"/>
<path d="M589.814 3777.15C500.314 3636.15 434.814 3650.65 479.314 3506.15C495.815 3470.15 501.514 3465.05 552.314 3372.65C615.814 3257.15 570 3248.89 666.5 3267.89C763 3286.89 865 3325.39 761.5 3398.39C658 3471.39 770.814 3422.15 799.314 3558.65C827.814 3695.15 907.314 3711.15 886.314 3887.65C865.314 4064.15 679.314 3918.15 589.814 3777.15Z" fill="#58D570" fill-opacity="0.07"/>
<ellipse opacity="0.4" cx="822" cy="2264" rx="255" ry="529" fill="#0B0D0F"/>
<ellipse opacity="0.4" cx="1375" cy="1735" rx="255" ry="529" fill="#0B0D0F"/>
<ellipse opacity="0.4" cx="991" cy="708.5" rx="341" ry="340.5" fill="#0B0D0F"/>
<ellipse opacity="0.15" cx="1569" cy="1419.5" rx="200" ry="338.5" fill="#00CB4F"/>
<ellipse opacity="0.9" cx="906.438" cy="1344.88" rx="156.612" ry="280.094" transform="rotate(29.9164 906.438 1344.88)" fill="#0D0F12"/>
<ellipse opacity="0.9" cx="743.437" cy="214.881" rx="83.998" ry="150.227" transform="rotate(29.9164 743.437 214.881)" fill="#0D0F12"/>
<ellipse opacity="0.3" cx="-47.1415" cy="1116.12" rx="210.25" ry="198.76" transform="rotate(91.1273 -47.1415 1116.12)" fill="#3F6891"/>
<ellipse opacity="0.2" cx="188.937" cy="523" rx="350.005" ry="359.018" transform="rotate(91.1273 188.937 523)" fill="#3F6891"/>
<ellipse opacity="0.35" cx="-46.0265" cy="299.23" rx="107.892" ry="152.241" transform="rotate(59.3566 -46.0265 299.23)" fill="url(#paint12_linear)"/>
<circle cx="787" cy="807" r="57" fill="#D3BF0D" fill-opacity="0.27"/>
<circle opacity="0.2" cx="128" cy="2851" r="104" transform="rotate(90 128 2851)" fill="#8B46AD" fill-opacity="0.8"/>
<circle opacity="0.34" cx="1137" cy="3331" r="49" transform="rotate(90 1137 3331)" fill="#8B46AD" fill-opacity="0.8"/>
<circle opacity="0.2" cx="788" cy="3865" r="33" transform="rotate(90 788 3865)" fill="#20A9A3" fill-opacity="0.8"/>
<circle opacity="0.2" cx="1164" cy="2447" r="33" transform="rotate(90 1164 2447)" fill="#20A9A3" fill-opacity="0.8"/>
<g filter="url(#filter0_b)">
<path d="M0 0L1440 0L1440 4000L0 4000L0 0Z" fill="black" fill-opacity="0.04"/>
</g>
</g>
<defs>
<filter id="filter0_b" x="-250" y="-250" width="1940" height="4500" filterUnits="userSpaceOnUse" color-interpolation-filters="sRGB">
<feFlood flood-opacity="0" result="BackgroundImageFix"/>
<feGaussianBlur in="BackgroundImage" stdDeviation="125"/>
<feComposite in2="SourceAlpha" operator="in" result="effect1_backgroundBlur"/>
<feBlend mode="normal" in="SourceGraphic" in2="effect1_backgroundBlur" result="shape"/>
</filter>
<linearGradient id="paint0_linear" x1="828.5" y1="4000" x2="671.631" y2="-211.529" gradientUnits="userSpaceOnUse">
<stop/>
<stop offset="0.711751" stop-color="#070809"/>
<stop offset="1" stop-color="#2E373F"/>
</linearGradient>
<linearGradient id="paint1_linear" x1="1537.51" y1="561.723" x2="120.043" y2="137.017" gradientUnits="userSpaceOnUse">
<stop stop-color="#5496D6"/>
<stop offset="1" stop-color="#6BA4D8"/>
</linearGradient>
<linearGradient id="paint2_linear" x1="1596.06" y1="353.027" x2="1160.61" y2="254.002" gradientUnits="userSpaceOnUse">
<stop stop-color="#5496D6"/>
<stop offset="1" stop-color="#6BA4D8"/>
</linearGradient>
<linearGradient id="paint3_linear" x1="466.742" y1="789.5" x2="656.756" y2="-45.8443" gradientUnits="userSpaceOnUse">
<stop/>
<stop offset="1" stop-color="#2E373F"/>
</linearGradient>
<linearGradient id="paint4_linear" x1="80.3046" y1="1388.44" x2="-65.8875" y2="1380.24" gradientUnits="userSpaceOnUse">
<stop stop-color="#5496D6"/>
<stop offset="1" stop-color="#6BA4D8"/>
</linearGradient>
<linearGradient id="paint5_linear" x1="696.275" y1="1747.54" x2="-277.027" y2="1658.01" gradientUnits="userSpaceOnUse">
<stop stop-color="#5496D6"/>
<stop offset="1" stop-color="#6BA4D8"/>
</linearGradient>
<linearGradient id="paint6_linear" x1="761.587" y1="4325.69" x2="267.905" y2="4280.36" gradientUnits="userSpaceOnUse">
<stop stop-color="#5496D6"/>
<stop offset="1" stop-color="#6BA4D8"/>
</linearGradient>
<linearGradient id="paint7_linear" x1="670.217" y1="2378.58" x2="481.13" y2="2063.93" gradientUnits="userSpaceOnUse">
<stop stop-color="#5496D6"/>
<stop offset="1" stop-color="#6BA4D8"/>
</linearGradient>
<linearGradient id="paint8_linear" x1="416.206" y1="312.119" x2="326.366" y2="305.027" gradientUnits="userSpaceOnUse">
<stop stop-color="#5496D6"/>
<stop offset="1" stop-color="#6BA4D8"/>
</linearGradient>
<linearGradient id="paint9_linear" x1="1014.85" y1="688.976" x2="925.005" y2="681.885" gradientUnits="userSpaceOnUse">
<stop stop-color="#5496D6"/>
<stop offset="1" stop-color="#6BA4D8"/>
</linearGradient>
<linearGradient id="paint10_linear" x1="733.568" y1="2450.58" x2="475.168" y2="2430.19" gradientUnits="userSpaceOnUse">
<stop stop-color="#5496D6"/>
<stop offset="1" stop-color="#6BA4D8"/>
</linearGradient>
<linearGradient id="paint11_linear" x1="585.293" y1="2763.57" x2="326.892" y2="2743.18" gradientUnits="userSpaceOnUse">
<stop stop-color="#5496D6"/>
<stop offset="1" stop-color="#6BA4D8"/>
</linearGradient>
<linearGradient id="paint12_linear" x1="79.4781" y1="448.752" x2="-195.361" y2="421.255" gradientUnits="userSpaceOnUse">
<stop stop-color="#5496D6"/>
<stop offset="1" stop-color="#6BA4D8"/>
</linearGradient>
<clipPath id="clip0">
<rect width="1440" height="4000" fill="white"/>
</clipPath>
</defs>
</svg>
