<svg width="16" height="16" viewBox="0 0 16 16" fill="none" xmlns="http://www.w3.org/2000/svg">
<path fill-rule="evenodd" clip-rule="evenodd" d="M3.24408 9.78782C3.56951 9.45308 4.09715 9.45308 4.42259 9.78782L8 12.9306L11.5774 9.78782C11.9028 9.45308 12.4305 9.45308 12.7559 9.78782C13.0814 10.1226 13.0814 10.6653 12.7559 11L8.58926 14.7489C8.26382 15.0836 7.73618 15.0836 7.41074 14.7489L3.24408 11C2.91864 10.6653 2.91864 10.1226 3.24408 9.78782Z" fill="#47D060"/>
<path fill-rule="evenodd" clip-rule="evenodd" d="M12.7563 6.21218C12.4308 6.54692 11.9032 6.54692 11.5777 6.21218L7.99999 3.06927L4.42292 6.21218C4.09749 6.54692 3.56985 6.54692 3.24441 6.21218C2.91898 5.87745 2.91898 5.33473 3.24441 5L7.41074 1.251C7.73617 0.916262 8.26381 0.916262 8.58925 1.251L12.7563 5C13.0817 5.33474 13.0817 5.87745 12.7563 6.21218Z" fill="#47D060"/>
</svg>
