<svg width="11" height="8" viewBox="0 0 11 8" fill="none" xmlns="http://www.w3.org/2000/svg">
<path d="M9.93558 1.08581e-07C9.79589 -6.3867e-05 9.65757 0.0281433 9.52854 0.083003C9.39952 0.137863 9.28233 0.218295 9.18371 0.319685L4.25878 5.36661L1.81822 2.86505C1.71948 2.76344 1.60214 2.68278 1.47294 2.6277C1.34374 2.57262 1.20521 2.54419 1.06527 2.54405C0.925342 2.5439 0.786755 2.57205 0.657447 2.62686C0.528138 2.68168 0.410648 2.7621 0.3117 2.86351C0.212753 2.96492 0.13429 3.08534 0.0808049 3.21787C0.0273194 3.35039 -0.000139282 3.49243 5.31242e-07 3.63585C0.000140344 3.77927 0.0278759 3.92125 0.0816197 4.05367C0.135364 4.18609 0.21406 4.30634 0.313206 4.40755L3.50627 7.68036C3.60506 7.78169 3.72237 7.86208 3.85149 7.91692C3.98061 7.97177 4.11901 8 4.25878 8C4.39855 8 4.53695 7.97177 4.66607 7.91692C4.79519 7.86208 4.9125 7.78169 5.01129 7.68036L10.6881 1.86218C10.837 1.70966 10.9384 1.51529 10.9795 1.30368C11.0206 1.09206 10.9996 0.872706 10.919 0.673359C10.8385 0.474012 10.702 0.303631 10.527 0.183771C10.3519 0.0639109 10.1461 -4.2853e-05 9.93558 1.08581e-07Z" fill="#47D060"/>
</svg>
